<svg xmlns="http://www.w3.org/2000/svg" width="17" height="16" fill="none" viewBox="0 0 17 16"><g id="Frame" clip-path="url(#clip0_221_9734)"><path id="Vector" fill="#000" d="M16.72 2.544L7.59197 11.68L4.19997 8.288L5.32797 7.16L7.59197 9.424L15.592 1.424L16.72 2.544ZM8.71997 14.4C5.19197 14.4 2.31997 11.528 2.31997 8C2.31997 4.472 5.19197 1.6 8.71997 1.6C9.97597 1.6 11.152 1.968 12.144 2.6L13.304 1.44C12 0.536 10.424 0 8.71997 0C4.30397 0 0.719971 3.584 0.719971 8C0.719971 12.416 4.30397 16 8.71997 16C10.104 16 11.408 15.648 12.544 15.024L11.344 13.824C10.544 14.192 9.65597 14.4 8.71997 14.4Z"/></g><defs><clipPath id="clip0_221_9734"><rect width="16" height="16" fill="#fff" transform="translate(0.719971)"/></clipPath></defs></svg>